<svg width="2879" height="512" viewBox="0 0 2879 512" fill="none" xmlns="http://www.w3.org/2000/svg">
<rect width="512" height="512" rx="90" fill="black"/>
<path d="M319.205 326.246C331.39 314.747 336.748 299.929 339.409 297.177C339.88 296.692 342.14 297.323 342.091 298.182C341.502 308.537 337.676 320.036 331.91 329.538C300.471 381.333 239.187 412.73 178.846 395.639C124.819 380.335 98.7033 331.215 98.0102 275.663C97.5042 234.66 115.656 148.043 205.731 117.651C306.75 83.5645 371.285 191.903 344.039 185.658C324.632 181.215 276.752 132.243 217.003 169.497C157.255 206.751 165.005 283.003 177.869 307.019C197.192 343.095 239.263 356.791 277.911 347.607C293.325 343.947 307.471 337.328 319.219 326.246H319.205Z" fill="#CCFF00"/>
<path d="M363.472 285.434C361.061 277.47 354.197 272.228 346.37 270.308C328.624 265.964 292.203 281.743 289.521 277.601C287.196 274.011 296.762 267.768 300.883 264.828C325 247.622 385.56 213.645 406.962 231.398C436.766 256.12 367.317 379.356 353.986 368.998C343.823 361.099 371.08 310.534 363.471 285.427L363.472 285.434Z" fill="#9966FF"/>
<path d="M2694.16 305.783C2694.16 315.466 2695.09 324.993 2696.97 334.364C2698.84 343.422 2701.96 351.7 2706.34 359.196C2711.02 366.381 2717.11 372.159 2724.61 376.532C2732.11 380.905 2741.48 383.092 2752.72 383.092C2763.97 383.092 2773.34 380.905 2780.84 376.532C2788.64 372.159 2794.74 366.381 2799.11 359.196C2803.79 351.7 2807.07 343.422 2808.95 334.364C2810.82 324.993 2811.76 315.466 2811.76 305.783C2811.76 296.1 2810.82 286.573 2808.95 277.202C2807.07 267.831 2803.79 259.553 2799.11 252.369C2794.74 245.185 2788.64 239.406 2780.84 235.033C2773.34 230.348 2763.97 228.005 2752.72 228.005C2741.48 228.005 2732.11 230.348 2724.61 235.033C2717.11 239.406 2711.02 245.185 2706.34 252.369C2701.96 259.553 2698.84 267.831 2696.97 277.202C2695.09 286.573 2694.16 296.1 2694.16 305.783ZM2627.62 305.783C2627.62 286.416 2630.59 268.924 2636.52 253.306C2642.46 237.376 2650.89 223.944 2661.83 213.012C2672.76 201.767 2685.88 193.177 2701.18 187.242C2716.49 180.995 2733.67 177.871 2752.72 177.871C2771.78 177.871 2788.96 180.995 2804.26 187.242C2819.88 193.177 2833.16 201.767 2844.09 213.012C2855.02 223.944 2863.45 237.376 2869.39 253.306C2875.32 268.924 2878.29 286.416 2878.29 305.783C2878.29 325.149 2875.32 342.641 2869.39 358.259C2863.45 373.877 2855.02 387.309 2844.09 398.554C2833.16 409.486 2819.88 417.92 2804.26 423.855C2788.96 429.79 2771.78 432.757 2752.72 432.757C2733.67 432.757 2716.49 429.79 2701.18 423.855C2685.88 417.92 2672.76 409.486 2661.83 398.554C2650.89 387.309 2642.46 373.877 2636.52 358.259C2630.59 342.641 2627.62 325.149 2627.62 305.783Z" fill="#F5F5F5"/>
<path d="M2592.1 146.947H2525.57V92.1281H2592.1V146.947ZM2525.57 184.431H2592.1V426.666H2525.57V184.431Z" fill="#F5F5F5"/>
<path d="M2405.47 354.511H2479.03V426.666H2405.47V354.511Z" fill="#F5F5F5"/>
<path d="M2294.8 204.578C2293.55 196.144 2290.74 188.491 2286.36 181.619C2281.99 174.435 2276.52 168.188 2269.96 162.878C2263.41 157.568 2255.91 153.507 2247.47 150.696C2239.35 147.572 2230.76 146.01 2221.7 146.01C2205.15 146.01 2191.09 149.29 2179.54 155.85C2167.98 162.097 2158.61 170.687 2151.42 181.619C2144.24 192.24 2138.93 204.422 2135.49 218.166C2132.37 231.909 2130.81 246.122 2130.81 260.803C2130.81 274.859 2132.37 288.603 2135.49 302.034C2138.93 315.154 2144.24 327.023 2151.42 337.643C2158.61 348.264 2167.98 356.854 2179.54 363.413C2191.09 369.66 2205.15 372.784 2221.7 372.784C2244.19 372.784 2261.69 365.912 2274.18 352.168C2286.99 338.424 2294.8 320.307 2297.61 297.818H2368.83C2366.95 318.746 2362.11 337.643 2354.3 354.511C2346.49 371.378 2336.19 385.747 2323.38 397.617C2310.57 409.486 2295.58 418.545 2278.4 424.792C2261.22 431.039 2242.32 434.163 2221.7 434.163C2196.09 434.163 2172.98 429.79 2152.36 421.044C2132.06 411.985 2114.88 399.647 2100.82 384.029C2086.77 368.411 2075.99 350.138 2068.49 329.21C2061 307.969 2057.25 285.167 2057.25 260.803C2057.25 235.814 2061 212.699 2068.49 191.459C2075.99 169.906 2086.77 151.164 2100.82 135.234C2114.88 119.303 2132.06 106.809 2152.36 97.7506C2172.98 88.6921 2196.09 84.1629 2221.7 84.1629C2240.13 84.1629 2257.47 86.818 2273.71 92.1281C2290.27 97.4382 2304.95 105.247 2317.76 115.555C2330.87 125.551 2341.65 138.045 2350.09 153.038C2358.52 168.032 2363.83 185.212 2366.02 204.578H2294.8Z" fill="#F5F5F5"/>
<path d="M1967.39 388.714C1954.27 405.582 1939.74 417.452 1923.81 424.324C1907.88 430.883 1891.79 434.163 1875.55 434.163C1849.94 434.163 1826.82 429.79 1806.21 421.044C1785.9 411.985 1768.72 399.647 1754.67 384.029C1740.61 368.411 1729.84 350.138 1722.34 329.21C1714.84 307.969 1711.09 285.167 1711.09 260.803C1711.09 235.814 1714.84 212.699 1722.34 191.459C1729.84 169.906 1740.61 151.164 1754.67 135.234C1768.72 119.303 1785.9 106.809 1806.21 97.7506C1826.82 88.6921 1849.94 84.1629 1875.55 84.1629C1892.73 84.1629 1909.29 86.818 1925.22 92.1281C1941.46 97.1259 1955.98 104.623 1968.79 114.618C1981.91 124.614 1992.69 136.952 2001.12 151.633C2009.55 166.314 2014.71 183.181 2016.58 202.235H1946.3C1941.93 183.494 1933.49 169.437 1921 160.067C1908.51 150.696 1893.36 146.01 1875.55 146.01C1859 146.01 1844.94 149.29 1833.38 155.85C1821.83 162.097 1812.46 170.687 1805.27 181.619C1798.09 192.24 1792.78 204.422 1789.34 218.166C1786.22 231.909 1784.66 246.122 1784.66 260.803C1784.66 274.859 1786.22 288.603 1789.34 302.034C1792.78 315.154 1798.09 327.023 1805.27 337.643C1812.46 348.264 1821.83 356.854 1833.38 363.413C1844.94 369.66 1859 372.784 1875.55 372.784C1899.92 372.784 1918.66 366.693 1931.78 354.511C1945.21 342.017 1953.02 324.056 1955.2 300.629H1881.17V245.809H2021.74V426.666H1974.88L1967.39 388.714Z" fill="#F5F5F5"/>
<path d="M1671.64 300.16C1671.64 345.453 1658.99 379.187 1633.69 401.365C1608.38 423.23 1573.4 434.163 1528.73 434.163C1483.44 434.163 1448.3 423.23 1423.31 401.365C1398.63 379.5 1386.3 345.765 1386.3 300.16V92.1281H1459.86V300.16C1459.86 309.219 1460.64 318.121 1462.2 326.867C1463.76 335.613 1467.04 343.422 1472.04 350.294C1477.04 356.854 1483.91 362.32 1492.66 366.693C1501.71 370.754 1513.74 372.784 1528.73 372.784C1554.97 372.784 1573.09 367.005 1583.08 355.448C1593.08 343.578 1598.08 325.149 1598.08 300.16V92.1281H1671.64V300.16Z" fill="#F5F5F5"/>
<path d="M1309.66 184.431H1358.39V228.942H1309.66V348.888C1309.66 360.133 1311.54 367.63 1315.28 371.378C1319.03 375.127 1326.53 377.001 1337.77 377.001C1341.52 377.001 1345.11 376.845 1348.55 376.532C1351.99 376.22 1355.27 375.751 1358.39 375.127V426.666C1352.77 427.603 1346.52 428.228 1339.65 428.54C1332.78 428.853 1326.06 429.009 1319.5 429.009C1309.19 429.009 1299.35 428.228 1289.98 426.666C1280.92 425.417 1272.8 422.762 1265.62 418.701C1258.75 414.64 1253.28 408.862 1249.22 401.365C1245.16 393.868 1243.13 384.029 1243.13 371.847V228.942H1202.83V184.431H1243.13V111.807H1309.66V184.431Z" fill="#F5F5F5"/>
<path d="M1128.7 279.544C1125.58 262.677 1119.96 249.87 1111.83 241.124C1104.03 232.378 1092 228.005 1075.76 228.005C1065.14 228.005 1056.23 229.879 1049.05 233.627C1042.18 237.063 1036.56 241.436 1032.18 246.747C1028.12 252.057 1025.15 257.679 1023.28 263.614C1021.72 269.549 1020.78 274.859 1020.47 279.544H1128.7ZM1020.47 321.713C1021.41 343.266 1026.87 358.884 1036.87 368.567C1046.86 378.25 1061.23 383.092 1079.97 383.092C1093.41 383.092 1104.96 379.812 1114.65 373.253C1124.33 366.381 1130.26 359.196 1132.45 351.7H1191.02C1181.65 380.749 1167.28 401.521 1147.91 414.016C1128.55 426.51 1105.12 432.757 1077.63 432.757C1058.58 432.757 1041.4 429.79 1026.09 423.855C1010.79 417.608 997.823 408.862 987.202 397.617C976.582 386.372 968.305 372.94 962.37 357.322C956.747 341.704 953.936 324.524 953.936 305.783C953.936 287.666 956.903 270.798 962.838 255.18C968.773 239.562 977.207 226.131 988.14 214.886C999.072 203.328 1012.04 194.27 1027.03 187.71C1042.33 181.151 1059.2 177.871 1077.63 177.871C1098.25 177.871 1116.21 181.932 1131.51 190.053C1146.82 197.862 1159.31 208.482 1169 221.914C1178.99 235.345 1186.18 250.651 1190.55 267.831C1194.92 285.011 1196.48 302.971 1195.23 321.713H1020.47Z" fill="#F5F5F5"/>
<path d="M868.292 388.714C855.173 405.582 840.648 417.452 824.718 424.324C808.787 430.883 792.701 434.163 776.458 434.163C750.844 434.163 727.73 429.79 707.114 421.044C686.81 411.985 669.631 399.647 655.574 384.029C641.518 368.411 630.742 350.138 623.245 329.21C615.748 307.969 612 285.167 612 260.803C612 235.814 615.748 212.699 623.245 191.459C630.742 169.906 641.518 151.164 655.574 135.234C669.631 119.303 686.81 106.809 707.114 97.7506C727.73 88.6921 750.844 84.1629 776.458 84.1629C793.638 84.1629 810.193 86.818 826.123 92.1281C842.366 97.1259 856.891 104.623 869.697 114.618C882.817 124.614 893.593 136.952 902.027 151.633C910.46 166.314 915.614 183.181 917.489 202.235H847.207C842.834 183.494 834.401 169.437 821.906 160.067C809.412 150.696 794.262 146.01 776.458 146.01C759.903 146.01 745.846 149.29 734.289 155.85C722.732 162.097 713.361 170.687 706.177 181.619C698.992 192.24 693.682 204.422 690.246 218.166C687.123 231.909 685.561 246.122 685.561 260.803C685.561 274.859 687.123 288.603 690.246 302.034C693.682 315.154 698.992 327.023 706.177 337.643C713.361 348.264 722.732 356.854 734.289 363.413C745.846 369.66 759.903 372.784 776.458 372.784C800.822 372.784 819.564 366.693 832.683 354.511C846.114 342.017 853.923 324.056 856.11 300.629H782.08V245.809H922.643V426.666H875.788L868.292 388.714Z" fill="#F5F5F5"/>
</svg>
